/* XPM */
static char *_cc857be89a84d2ced00cfb3002b543d[] = {
/* columns rows colors chars-per-pixel */
"32 32 87 1 ",
"  c #005B7F",
". c #016085",
"X c #016086",
"o c #016187",
"O c #016287",
"+ c #016288",
"@ c #026288",
"# c #026389",
"$ c #02648A",
"% c #056E88",
"& c #076B92",
"* c #006B94",
"= c #006B95",
"- c #006D97",
"; c #086C93",
": c #086D94",
"> c #096E95",
", c #0A6E96",
"< c #006D98",
"1 c #006F99",
"2 c #006F9A",
"3 c #036F9A",
"4 c #057E90",
"5 c #0084B7",
"6 c #0085B7",
"7 c #0087BA",
"8 c #0087BB",
"9 c #0088BB",
"0 c #0088BC",
"q c #0396B4",
"w c #0392BC",
"e c #2486AB",
"r c #2A8AAF",
"t c #07A8A7",
"y c #06A2AC",
"u c #06A7AE",
"i c #06AAB3",
"p c #05A9B7",
"a c #0090C7",
"s c #0091C7",
"d c #0191C7",
"f c #0195C6",
"g c #0091C8",
"h c #0092C9",
"j c #009AD4",
"k c #009AD5",
"l c #009CD6",
"z c #009CD7",
"x c #03A1C4",
"c c #03ADCA",
"v c #06BCC8",
"b c #03ACD4",
"n c #01A3DA",
"m c #02A6D8",
"M c #01A0DC",
"N c #04BDD6",
"B c #00A5E3",
"V c #00A6E4",
"C c #00A7E5",
"Z c #01ACE0",
"A c #00A8E8",
"S c #00A9E8",
"D c #00AEEF",
"F c #02B6E3",
"G c #00B0EC",
"H c #4BA0C0",
"J c #4CA0C1",
"K c #4EA2C2",
"L c #59A9C7",
"P c #5BA9C8",
"I c #5CAAC8",
"U c #71B6D1",
"Y c #73B7D1",
"T c #83C0D7",
"R c #9DCEE1",
"E c #A0CFE2",
"W c #A2D0E3",
"Q c #B5DAE8",
"! c #B7DCEA",
"~ c #C5E2EE",
"^ c #C7E3EE",
"/ c #EFF7FA",
"( c #F1F9FB",
") c #F3F9FC",
"_ c #F5FAFC",
"` c #F7FBFD",
"' c gray100",
/* pixels */
"''''''''''''''''''''''''''''''''",
"''''''''''''''''''''''''''''''''",
"''''''''''''''''''''''''''''''''",
"''''''''''''''''''''''''''''''''",
"'''''''''''(Tr:X X:rT(''''''''''",
"'''''''''`I$-8jBABj8-#J(''''''''",
"''''''''!:1zDDDDDDDDDz1;Q'''''''",
"'''''''EX8DDDDDDDDDDDDD8XR''''''",
"''''''QXgDDDDDDDDDDDDDDDgXQ'''''",
"'''''_:9DDDDDDDDDDDDDDDDG0:_''''",
"'''''J1DDDDDDDDDDDDDDDDDDD2J''''",
"''''/#zDDDDDDDDDDDDDDDDDDDz$/'''",
"''''Y*DDDDDDDDDDDDDDDDDDDDD*Y'''",
"''''e5DDDGxxnDDZxCDbxxMDDDD5e'''",
"'''';jDDDDyDiMDDyDDN3FaDDDDj&'''",
"''''XBDDDDuxyCDDyDDN4qDDDDDCX'''",
"'''' ADDDDyDcwDDyDDN3mDDDDDA '''",
"''''XBDDDGtxpfDZtCDv%DDDDDDCX'''",
"''''&jDDDDDDDDDDDDDDDDDDDDDj&'''",
"''''e9DDDDDDDDDDDDDDDDDDDDD8e'''",
"''''Y-DDDDDDDDDDDDDDDDDDDDD1Y'''",
"''''/#zDDDDDDDDDDDDDDDDDDDzX/'''",
"'''''J1DDDDDDDDDDDDDDDDDDD1H''''",
"'''''_:9DDDDDDDDDDDDDDDDD9&)''''",
"''''''QXgDDDDDDDDDDDDDDDg#Q'''''",
"'''''''W$9DDDDDDDDDDDDD0#E''''''",
"''''''''~:-zDDDDDDDDDz1:~'''''''",
"'''''''''`L$19jBABj81$I_''''''''",
"'''''''''''/Ye;X X;eY/''''''''''",
"''''''''''''''''''''''''''''''''",
"''''''''''''''''''''''''''''''''",
"''''''''''''''''''''''''''''''''"
};
