/* XPM */
static char *c7cab08498e04470cf1ba7647f955351[] = {
/* columns rows colors chars-per-pixel */
"64 64 149 2 ",
"   c #063D4A",
".  c #08544D",
"X  c #054763",
"o  c #045272",
"O  c #005B7F",
"+  c #076367",
"@  c #086D65",
"#  c #08796F",
"$  c #088379",
"%  c #005C80",
"&  c #005C81",
"*  c #005D81",
"=  c #005D82",
"-  c #005E83",
";  c #045D80",
":  c #016085",
">  c #006086",
",  c #016186",
"<  c #016187",
"1  c #016287",
"2  c #03678E",
"3  c #05688F",
"4  c #077E80",
"5  c #006A93",
"6  c #056990",
"7  c #066990",
"8  c #066A91",
"9  c #076A91",
"0  c #076B92",
"q  c #006C95",
"w  c #006E98",
"e  c #006F9A",
"r  c #057E90",
"t  c #0D7299",
"y  c #11769D",
"u  c #12769D",
"i  c #13779E",
"p  c #13789F",
"a  c #0076A3",
"s  c #0077A4",
"d  c #0077A5",
"f  c #0378A6",
"g  c #187CA3",
"h  c #007FB0",
"j  c #088880",
"k  c #098D82",
"l  c #09978B",
"z  c #068D98",
"x  c #09AA9C",
"c  c #048AA3",
"v  c #1C80A6",
"b  c #0596A7",
"n  c #0080B1",
"m  c #0080B2",
"M  c #0081B2",
"N  c #0286B2",
"B  c #2083A9",
"V  c #2385AA",
"C  c #2385AB",
"Z  c #2A8AAF",
"A  c #2A8AB0",
"S  c #2B8BB0",
"D  c #2D8CB1",
"F  c #2E8DB1",
"G  c #2F8DB2",
"H  c #3C96B9",
"J  c #3D97BA",
"K  c #06A2AC",
"L  c #09B3A5",
"P  c #09B5A9",
"I  c #06A5B1",
"U  c #08B6B1",
"Y  c #09BFB4",
"T  c #06B2B8",
"R  c #08BFBA",
"E  c #429ABC",
"W  c #449CBD",
"Q  c #0AC6B8",
"!  c #09C7BA",
"~  c #08C1BC",
"^  c #08C2BE",
"/  c #09C8BB",
"(  c #0ACCBC",
")  c #008CC2",
"_  c #008DC2",
"`  c #008DC3",
"'  c #008EC4",
"]  c #0191C7",
"[  c #0195C6",
"{  c #0094CB",
"}  c #0094CC",
"|  c #0198D2",
" . c #0099D2",
".. c #0099D3",
"X. c #009AD4",
"o. c #009AD5",
"O. c #009BD6",
"+. c #009CD6",
"@. c #009CD7",
"#. c #009ED9",
"$. c #009FDA",
"%. c #009FDB",
"&. c #04ACC2",
"*. c #03ADCA",
"=. c #04B0C2",
"-. c #05B4C1",
";. c #02A6D8",
":. c #01A0DC",
">. c #04BDD6",
",. c #00A3E0",
"<. c #00A4E1",
"1. c #00A7E5",
"2. c #00A9E3",
"3. c #00A8E7",
"4. c #00A8E8",
"5. c #00A9E8",
"6. c #00ACEC",
"7. c #00ACED",
"8. c #00AEEF",
"9. c #02B6E3",
"0. c #01B4E6",
"q. c #02B8E0",
"w. c #01B2E9",
"e. c #00B0EC",
"r. c #5FACCA",
"t. c #64AFCC",
"y. c #66B0CC",
"u. c #6DB4CF",
"i. c #6FB5D0",
"p. c #70B6D1",
"a. c #71B6D1",
"s. c #08C7C0",
"d. c #07C5CA",
"f. c #A3D1E3",
"g. c #A5D2E3",
"h. c #A8D4E4",
"j. c #AAD5E5",
"k. c #C0E0EC",
"l. c #C1E1ED",
"z. c #C3E2ED",
"x. c #C5E2EE",
"c. c #C7E3EE",
"v. c #C8E4EF",
"b. c #CEE7F0",
"n. c #D5EAF3",
"m. c #E8F3F8",
"M. c #EBF6F9",
"N. c #F3F9FC",
"B. c gray100",
/* pixels */
"B.B.B.B.B.B.B.B.B.B.B.B.B.B.B.B.B.B.B.B.B.B.B.B.B.B.B.B.B.B.B.B.B.B.B.B.B.B.B.B.B.B.B.B.B.B.B.B.B.B.B.B.B.B.B.B.B.B.B.B.B.B.B.B.",
"B.B.B.B.B.B.B.B.B.B.B.B.B.B.B.B.B.B.B.B.B.B.B.B.B.B.B.B.B.B.B.B.B.B.B.B.B.B.B.B.B.B.B.B.B.B.B.B.B.B.B.B.B.B.B.B.B.B.B.B.B.B.B.B.",
"B.B.B.B.B.B.B.B.B.B.B.B.B.B.B.B.B.B.B.B.B.B.B.B.B.B.B.B.B.B.B.B.B.B.B.B.B.B.B.B.B.B.B.B.B.B.B.B.B.B.B.B.B.B.B.B.B.B.B.B.B.B.B.B.",
"B.B.B.B.B.B.B.B.B.B.B.B.B.B.B.B.B.B.B.B.B.B.B.B.B.B.B.B.B.B.B.B.B.B.B.B.B.B.B.B.B.B.B.B.B.B.B.B.B.B.B.B.B.B.B.B.B.B.B.B.B.B.B.B.",
"B.B.B.B.B.B.B.B.B.B.B.B.B.B.B.B.B.B.B.B.B.B.B.B.B.B.B.B.B.B.B.B.B.B.B.B.B.B.B.B.B.B.B.B.B.B.B.B.B.B.B.B.B.B.B.B.B.B.B.B.B.B.B.B.",
"B.B.B.B.B.B.B.B.B.B.B.B.B.B.B.B.B.B.B.B.B.B.B.B.B.B.B.B.B.B.B.B.B.B.B.B.B.B.B.B.B.B.B.B.B.B.B.B.B.B.B.B.B.B.B.B.B.B.B.B.B.B.B.B.",
"B.B.B.B.B.B.B.B.B.B.B.B.B.B.B.B.B.B.B.B.B.B.B.B.B.B.B.B.B.B.B.B.B.B.B.B.B.B.B.B.B.B.B.B.B.B.B.B.B.B.B.B.B.B.B.B.B.B.B.B.B.B.B.B.",
"B.B.B.B.B.B.B.B.B.B.B.B.B.B.B.B.B.B.B.B.B.B.B.B.B.v.y.F p 9 > % % > 9 p F y.v.B.B.B.B.B.B.B.B.B.B.B.B.B.B.B.B.B.B.B.B.B.B.B.B.B.",
"B.B.B.B.B.B.B.B.B.B.B.B.B.B.B.B.B.B.B.B.B.B.x.E 0 O O O O O % % % % O O % O O 9 E x.B.B.B.B.B.B.B.B.B.B.B.B.B.B.B.B.B.B.B.B.B.B.",
"B.B.B.B.B.B.B.B.B.B.B.B.B.B.B.B.B.B.B.B.j.v % O O O q n `  .:.:.,.%. .` h w % % % % g j.B.B.B.B.B.B.B.B.B.B.B.B.B.B.B.B.B.B.B.B.",
"B.B.B.B.B.B.B.B.B.B.B.B.B.B.B.B.B.B.n.B O O O w ` 3.8.8.8.8.8.8.8.8.8.8.8.8.5.` w O % % C n.B.B.B.B.B.B.B.B.B.B.B.B.B.B.B.B.B.B.",
"B.B.B.B.B.B.B.B.B.B.B.B.B.B.B.B.B.a.> O O a %.8.8.8.8.8.8.8.8.8.8.8.8.8.8.8.8.8.8.%.s % % - a.B.B.B.B.B.B.B.B.B.B.B.B.B.B.B.B.B.",
"B.B.B.B.B.B.B.B.B.B.B.B.B.B.B.N.F O O 5 X.8.8.8.8.8.8.8.8.8.8.8.8.8.8.8.8.8.8.8.8.8.8.X.5 % O A N.B.B.B.B.B.B.B.B.B.B.B.B.B.B.B.",
"B.B.B.B.B.B.B.B.B.B.B.B.B.B.m.p O O h 8.8.8.8.8.8.8.8.8.8.8.8.8.8.8.8.8.8.8.8.8.8.8.8.8.8.h O % y M.B.B.B.B.B.B.B.B.B.B.B.B.B.B.",
"B.B.B.B.B.B.B.B.B.B.B.B.B.M.t O - } 8.8.8.8.8.8.8.8.8.8.8.8.8.8.8.8.8.8.8.8.8.8.8.8.8.8.8.8.} - O t M.B.B.B.B.B.B.B.B.B.B.B.B.B.",
"B.B.B.B.B.B.B.B.B.B.B.B.N.y O > X.8.8.8.8.8.8.8.8.8.8.8.8.8.8.8.8.8.8.8.8.8.8.8.8.8.8.8.8.8.8.X.- O y N.B.B.B.B.B.B.B.B.B.B.B.B.",
"B.B.B.B.B.B.B.B.B.B.B.B.S O % @.8.8.8.8.8.8.8.8.8.8.8.8.8.8.8.8.8.8.8.8.8.8.8.8.8.8.8.8.8.8.8.8.@.- % S B.B.B.B.B.B.B.B.B.B.B.B.",
"B.B.B.B.B.B.B.B.B.B.B.i.O O { 8.8.8.8.8.8.8.8.8.8.8.8.8.8.8.8.8.8.8.8.8.8.8.8.8.8.8.8.8.8.8.8.8.8.} O % i.B.B.B.B.B.B.B.B.B.B.B.",
"B.B.B.B.B.B.B.B.B.B.b.> O n 8.8.8.8.8.8.8.8.8.8.8.8.8.8.8.8.8.8.8.8.8.8.8.8.8.8.8.8.8.8.8.8.8.8.8.8.h % - b.B.B.B.B.B.B.B.B.B.B.",
"B.B.B.B.B.B.B.B.B.B.B O 5 8.8.8.8.8.8.8.8.8.8.8.8.8.8.8.8.8.8.8.8.8.8.8.8.8.8.8.8.8.8.8.8.8.8.8.8.8.7.5 O B B.B.B.B.B.B.B.B.B.B.",
"B.B.B.B.B.B.B.B.B.g.O O X.8.8.8.8.8.8.8.8.8.8.8.8.8.8.8.8.8.8.8.8.8.8.8.8.8.8.8.8.8.8.8.8.8.8.8.8.8.8.X.% O g.B.B.B.B.B.B.B.B.B.",
"B.B.B.B.B.B.B.B.B.g O a 8.8.8.8.8.8.8.8.8.8.8.8.8.8.8.8.8.8.8.8.8.8.8.8.8.8.8.8.8.8.8.8.8.8.8.8.8.8.8.8.a O g B.B.B.B.B.B.B.B.B.",
"B.B.B.B.B.B.B.B.x.% O %.8.8.8.8.8.8.8.8.8.8.8.8.8.8.8.8.8.8.8.8.8.8.8.8.8.8.8.8.8.8.8.8.8.8.8.8.8.8.8.8.%.% % l.B.B.B.B.B.B.B.B.",
"B.B.B.B.B.B.B.B.W O w 8.8.8.8.8.8.8.8.8.8.8.8.8.8.8.8.8.8.8.8.8.8.8.8.8.8.8.8.8.8.8.8.8.8.8.8.8.8.8.8.8.7.w % H B.B.B.B.B.B.B.B.",
"B.B.B.B.B.B.B.B.9 O ` 8.8.8.8.8.8.8.8.8.8.8.8.8.8.8.8.8.8.8.8.8.8.8.8.8.8.8.8.8.8.8.8.8.8.8.8.8.8.8.8.8.8.` O 9 B.B.B.B.B.B.B.B.",
"B.B.B.B.B.B.B.v.O O 5.8.8.8.8.8.8.8.8.8.8.8.8.8.8.8.8.8.8.8.8.8.8.8.8.8.8.8.8.8.8.8.8.8.8.8.8.8.8.8.8.8.8.5.O O k.B.B.B.B.B.B.B.",
"B.B.B.B.B.B.B.t.O q 8.8.8.8.8.8.8.8.8.8.8.8.8.8.8.8.8.8.8.8.8.8.8.8.8.8.8.8.8.8.8.8.8.8.8.8.8.8.8.8.8.8.8.8.q O r.B.B.B.B.B.B.B.",
"B.B.B.B.B.B.B.F O h 8.8.8.8.8.8.8.8.8.9.9.9.9.9.8.8.8.8.8.8.w.9.9.9.e.8.8.e.9.9.9.9.9.9.8.8.8.8.8.8.8.8.8.8.h O F B.B.B.B.B.B.B.",
"B.B.B.B.B.B.B.p O ` 8.8.8.8.8.8.8.8.8.1.~ l r b Y z 1.8.8.8.8.*./   { 8.8.8.;.( # c c U o 8.8.8.8.8.8.8.8.8.` O y B.B.B.B.B.B.B.",
"B.B.B.B.B.B.B.3 O  .8.8.8.8.8.8.8.8.8.8.d.$ ] 8.q.Q O 8.8.8.8.9.( X 8.8.8.8.8.( . 8.8.w.] 8.8.8.8.8.8.8.8.8. .O 9 B.B.B.B.B.B.B.",
"B.B.B.B.B.B.B.> O %.8.8.8.8.8.8.8.8.8.8.d.$ ] 8.q.Q X 8.8.8.8.9.( X 8.8.8.8.8.( . 8.9.%.8.8.8.8.8.8.8.8.8.8.%.% > B.B.B.B.B.B.B.",
"B.B.B.B.B.B.B.O O ,.8.8.8.8.8.8.8.8.8.8.d.x I -./ + { 8.8.8.8.9.( X 8.8.8.8.8.( l =.~ ; 8.8.8.8.8.8.8.8.8.8.,.% % B.B.B.B.B.B.B.",
"B.B.B.B.B.B.B.O O <.8.8.8.8.8.8.8.8.8.8.d.$ f ] T P N 8.8.8.8.9.( X 8.8.8.8.8.( . ] &.3 8.8.8.8.8.8.8.8.8.8.,.O % B.B.B.B.B.B.B.",
"B.B.B.B.B.B.B.> O :.8.8.8.8.8.8.8.8.8.8.d.$ { 8.8./ $ | 8.8.8.9.( X 8.8.8.8.8.( . 8.w.%.8.8.8.8.8.8.8.8.8.8.%.% > B.B.B.B.B.B.B.",
"B.B.B.B.B.B.B.3 O  .8.8.8.8.8.8.8.8.8.8.d.$ { 8.9.( @ | 8.8.8.9.( X 8.8.8.8.8.( . 8.8.8.8.8.8.8.8.8.8.8.8.8. .O 9 B.B.B.B.B.B.B.",
"B.B.B.B.B.B.B.p O ` 8.8.8.8.8.8.8.8.8.q.^ L K T R j 3 8.8.8.w.>.( 4 2.8.8.e.q.( k ;.8.8.8.8.8.8.8.8.8.8.8.8.` O y B.B.B.B.B.B.B.",
"B.B.B.B.B.B.B.F O h 8.8.8.8.8.8.8.8.8.3.' { ' { { 1.8.8.8.8.8.| ] ] ] 8.8.8.:.] ] ] 3.8.8.8.8.8.8.8.8.8.8.8.h % F B.B.B.B.B.B.B.",
"B.B.B.B.B.B.B.t.O q 8.8.8.8.8.8.8.8.8.8.8.8.8.8.8.8.8.8.8.8.8.8.8.8.8.8.8.8.8.8.8.8.8.8.8.8.8.8.8.8.8.8.8.8.5 O r.B.B.B.B.B.B.B.",
"B.B.B.B.B.B.B.v.O O 3.8.8.8.8.8.8.8.8.8.8.8.8.8.8.8.8.8.8.8.8.8.8.8.8.8.8.8.8.8.8.8.8.8.8.8.8.8.8.8.8.8.8.4.% O l.B.B.B.B.B.B.B.",
"B.B.B.B.B.B.B.B.9 O ` 8.8.8.8.8.8.8.8.8.8.8.8.8.8.8.8.8.8.8.8.8.8.8.8.8.8.8.8.8.8.8.8.8.8.8.8.8.8.8.8.8.8.' % 9 B.B.B.B.B.B.B.B.",
"B.B.B.B.B.B.B.B.W O e 8.8.8.8.8.8.8.8.8.8.8.8.8.8.8.8.8.8.8.8.8.8.8.8.8.8.8.8.8.8.8.8.8.8.8.8.8.8.8.8.8.8.w O H B.B.B.B.B.B.B.B.",
"B.B.B.B.B.B.B.B.l.O O %.8.8.8.8.8.8.8.8.8.8.8.8.8.8.8.8.8.8.8.8.8.8.8.8.8.8.8.8.8.8.8.8.8.8.8.8.8.8.8.8.%.O O l.B.B.B.B.B.B.B.B.",
"B.B.B.B.B.B.B.B.B.g O a 8.8.8.8.8.8.8.8.8.8.8.8.8.8.8.8.8.8.8.8.8.8.8.8.8.8.8.8.8.8.8.8.8.8.8.8.8.8.8.8.a O g B.B.B.B.B.B.B.B.B.",
"B.B.B.B.B.B.B.B.B.g.O O  .8.8.8.8.8.8.8.8.8.8.8.8.8.8.8.8.8.8.8.8.8.8.8.8.8.8.8.8.8.8.8.8.8.8.8.8.8.8.X.O O g.B.B.B.B.B.B.B.B.B.",
"B.B.B.B.B.B.B.B.B.B.B O 5 8.8.8.8.8.8.8.8.8.8.8.8.8.8.8.8.8.8.8.8.8.8.8.8.8.8.8.8.8.8.8.8.8.8.8.8.8.8.5 O B B.B.B.B.B.B.B.B.B.B.",
"B.B.B.B.B.B.B.B.B.B.b.> O n 8.8.8.8.8.8.8.8.8.8.8.8.8.8.8.8.8.8.8.8.8.8.8.8.8.8.8.8.8.8.8.8.8.8.8.8.n O > b.B.B.B.B.B.B.B.B.B.B.",
"B.B.B.B.B.B.B.B.B.B.B.u.O O { 8.8.8.8.8.8.8.8.8.8.8.8.8.8.8.8.8.8.8.8.8.8.8.8.8.8.8.8.8.8.8.8.8.8.} O O u.B.B.B.B.B.B.B.B.B.B.B.",
"B.B.B.B.B.B.B.B.B.B.B.B.S O % @.8.8.8.8.8.8.8.8.8.8.8.8.8.8.8.8.8.8.8.8.8.8.8.8.8.8.8.8.8.8.8.8.%.% O Z B.B.B.B.B.B.B.B.B.B.B.B.",
"B.B.B.B.B.B.B.B.B.B.B.B.N.y O > X.8.8.8.8.8.8.8.8.8.8.8.8.8.8.8.8.8.8.8.8.8.8.8.8.8.8.8.8.8.8.%.- % y N.B.B.B.B.B.B.B.B.B.B.B.B.",
"B.B.B.B.B.B.B.B.B.B.B.B.B.M.t O % { 8.8.8.8.8.8.8.8.8.8.8.8.8.8.8.8.8.8.8.8.8.8.8.8.8.8.8.8.{ % % t M.B.B.B.B.B.B.B.B.B.B.B.B.B.",
"B.B.B.B.B.B.B.B.B.B.B.B.B.B.m.p O O h 8.8.8.8.8.8.8.8.8.8.8.8.8.8.8.8.8.8.8.8.8.8.8.8.8.7.h O O y m.B.B.B.B.B.B.B.B.B.B.B.B.B.B.",
"B.B.B.B.B.B.B.B.B.B.B.B.B.B.B.N.Z O O 5 X.8.8.8.8.8.8.8.8.8.8.8.8.8.8.8.8.8.8.8.8.8.8.X.5 % O Z N.B.B.B.B.B.B.B.B.B.B.B.B.B.B.B.",
"B.B.B.B.B.B.B.B.B.B.B.B.B.B.B.B.B.a.> O O a %.8.8.8.8.8.8.8.8.8.8.8.8.8.8.8.8.8.8.%.s % % > a.B.B.B.B.B.B.B.B.B.B.B.B.B.B.B.B.B.",
"B.B.B.B.B.B.B.B.B.B.B.B.B.B.B.B.B.B.n.V O O O e ' 5.8.8.8.8.8.8.8.8.8.8.8.8.5.' w % % % B n.B.B.B.B.B.B.B.B.B.B.B.B.B.B.B.B.B.B.",
"B.B.B.B.B.B.B.B.B.B.B.B.B.B.B.B.B.B.B.B.h.v % O % % 5 h `  .%.,.,.%.X.` h q % O O % g j.B.B.B.B.B.B.B.B.B.B.B.B.B.B.B.B.B.B.B.B.",
"B.B.B.B.B.B.B.B.B.B.B.B.B.B.B.B.B.B.B.B.B.B.x.E 9 % % % % O % O O O O O O O O 9 E x.B.B.B.B.B.B.B.B.B.B.B.B.B.B.B.B.B.B.B.B.B.B.",
"B.B.B.B.B.B.B.B.B.B.B.B.B.B.B.B.B.B.B.B.B.B.B.B.B.x.t.F y 9 < % % > 9 y F t.x.B.B.B.B.B.B.B.B.B.B.B.B.B.B.B.B.B.B.B.B.B.B.B.B.B.",
"B.B.B.B.B.B.B.B.B.B.B.B.B.B.B.B.B.B.B.B.B.B.B.B.B.B.B.B.B.B.B.B.B.B.B.B.B.B.B.B.B.B.B.B.B.B.B.B.B.B.B.B.B.B.B.B.B.B.B.B.B.B.B.B.",
"B.B.B.B.B.B.B.B.B.B.B.B.B.B.B.B.B.B.B.B.B.B.B.B.B.B.B.B.B.B.B.B.B.B.B.B.B.B.B.B.B.B.B.B.B.B.B.B.B.B.B.B.B.B.B.B.B.B.B.B.B.B.B.B.",
"B.B.B.B.B.B.B.B.B.B.B.B.B.B.B.B.B.B.B.B.B.B.B.B.B.B.B.B.B.B.B.B.B.B.B.B.B.B.B.B.B.B.B.B.B.B.B.B.B.B.B.B.B.B.B.B.B.B.B.B.B.B.B.B.",
"B.B.B.B.B.B.B.B.B.B.B.B.B.B.B.B.B.B.B.B.B.B.B.B.B.B.B.B.B.B.B.B.B.B.B.B.B.B.B.B.B.B.B.B.B.B.B.B.B.B.B.B.B.B.B.B.B.B.B.B.B.B.B.B.",
"B.B.B.B.B.B.B.B.B.B.B.B.B.B.B.B.B.B.B.B.B.B.B.B.B.B.B.B.B.B.B.B.B.B.B.B.B.B.B.B.B.B.B.B.B.B.B.B.B.B.B.B.B.B.B.B.B.B.B.B.B.B.B.B.",
"B.B.B.B.B.B.B.B.B.B.B.B.B.B.B.B.B.B.B.B.B.B.B.B.B.B.B.B.B.B.B.B.B.B.B.B.B.B.B.B.B.B.B.B.B.B.B.B.B.B.B.B.B.B.B.B.B.B.B.B.B.B.B.B.",
"B.B.B.B.B.B.B.B.B.B.B.B.B.B.B.B.B.B.B.B.B.B.B.B.B.B.B.B.B.B.B.B.B.B.B.B.B.B.B.B.B.B.B.B.B.B.B.B.B.B.B.B.B.B.B.B.B.B.B.B.B.B.B.B."
};
